<?xml version="1.0" encoding="UTF-8"?>
<svg width="922px" height="257px" viewBox="0 0 922 257" version="1.1" xmlns="http://www.w3.org/2000/svg" xmlns:xlink="http://www.w3.org/1999/xlink">
    <title>minted_pix_4</title>
    <defs>
        <filter color-interpolation-filters="auto" id="filter-1">
            <feColorMatrix in="SourceGraphic" type="matrix" values="0 0 0 0 0.695114 0 0 0 0 0.695114 0 0 0 0 0.695114 0 0 0 1.000000 0"></feColorMatrix>
        </filter>
    </defs>
    <g id="Page-1" stroke="none" stroke-width="1" fill="none" fill-rule="evenodd">
        <g id="minted_pix_4" transform="translate(0.233645, 0.000000)" filter="url(#filter-1)">
            <g>
                <path d="M865.111621,6.82652273e-14 C896.316041,6.82652273e-14 921.612221,26.7720421 921.612221,59.7970297 L921.612221,197.20297 C921.612221,230.227958 896.316041,257 865.111621,257 L648.38592,257 L648.38592,256.933 L677.21992,227.737 L865.143772,227.737624 C880.909625,227.737624 893.720226,214.338843 893.974861,197.707917 L893.978725,197.20297 L893.978725,59.7970297 C893.978725,43.1018445 881.325782,29.5361121 865.62061,29.266467 L865.143772,29.2623762 L633.262693,29.2623762 C618.73787,29.2623762 606.721358,40.6347728 604.720452,55.429746 L604.72,85.266 L604.669,85.266 L604.669916,201.093909 L604.668545,208.411346 L597.532424,213.48585 L587.728934,206.515592 L587.474496,206.342224 C584.821764,204.610461 580.942518,204.360284 577.935414,205.591695 L577.921545,202.506346 L577.920463,202.506446 L577.919545,186.724346 L577.879764,186.725186 L577.879764,173.627779 L577.482873,173.627779 C574.175447,179.184255 569.842718,183.18624 564.484688,185.633736 C559.126657,188.081231 553.074067,189.304979 546.326918,189.304979 C538.653689,189.304979 531.906539,187.816637 526.085469,184.839954 C520.264399,181.86327 515.468631,177.82821 511.698165,172.734774 C507.927699,167.641337 505.083313,161.787193 503.165005,155.17234 C501.246698,148.557488 500.287545,141.678041 500.287545,134.534001 C500.287545,127.654554 501.246698,121.006627 503.165005,114.59022 C505.083313,108.173813 507.927699,102.518115 511.698165,97.6231238 C515.468631,92.728133 520.19825,88.7922958 525.887024,85.8156122 C531.575797,82.8389286 538.190649,81.3505867 545.731581,81.3505867 C551.817245,81.3505867 557.605241,82.640483 563.095569,85.2202754 C568.408789,87.7168488 572.637889,91.3594918 575.782869,96.1482044 L576.093754,96.6308959 L576.490645,96.6308959 L576.490545,76.2593458 L576.576,76.259 L576.59792,57.9415547 L576.624734,57.9369934 C577.553311,25.7726355 602.482074,6.82652273e-14 633.09852,6.82652273e-14 L865.111621,6.82652273e-14 Z M648.737545,215.852346 L648.738215,221.556931 L648.504463,221.556768 L623.736463,246.325548 L623.769056,246.358422 L623.306463,246.819768 L623.036537,246.819766 C620.714224,249.587804 617.229352,251.347593 613.333459,251.347593 C609.437566,251.347593 605.952693,249.587804 603.630381,246.819766 L603.619463,246.819768 L603.157541,246.358422 L603.212463,246.302548 L577.920463,221.011543 L578.008463,220.922768 L577.984545,215.921346 L591.557788,225.572655 L591.843962,225.766632 C592.232137,226.017396 592.646205,226.236666 593.079663,226.424443 L593.40829,226.559371 L593.419481,226.566091 C595.942683,228.360168 599.299056,228.414534 601.872753,226.729189 L602.111695,226.566091 L613.253545,218.641346 L613.485463,218.872548 L613.571545,218.785346 L623.117661,225.572655 L623.403396,225.766348 C623.790965,226.016757 624.204351,226.235767 624.637082,226.42338 L624.965155,226.558202 L624.979354,226.566091 C627.502556,228.360168 630.858929,228.414534 633.432626,226.729189 L633.671567,226.566091 L648.737545,215.852346 Z M678.264875,81.3505867 C686.334995,81.3505867 693.28059,82.8720028 699.10166,85.9148349 C704.92273,88.9576671 709.751573,92.9927271 713.588187,98.020015 C717.424801,103.047303 720.269188,108.901447 722.121347,115.582448 C723.973505,122.263449 724.899585,129.242119 724.899585,136.518456 C724.899585,143.397903 723.973505,150.012755 722.121347,156.363014 C720.269188,162.713272 717.457876,168.335897 713.68741,173.230887 C709.916944,178.125878 705.220399,182.028641 699.597774,184.939176 C693.97515,187.849711 687.393371,189.304979 679.85244,189.304979 C673.502181,189.304979 667.648037,188.015083 662.290006,185.43529 C657.116735,182.944456 652.83761,179.312816 649.45263,174.540369 L649.093376,174.02467 L648.737545,174.024047 L648.738152,205.352591 C646.248732,203.728008 643.030127,203.728536 640.541181,205.354175 L640.294773,205.522156 L629.092424,213.48585 L620.514545,207.387346 L620.516252,174.011768 L620.517213,84.1288248 L647.307365,84.1288248 L647.307365,97.2262327 L647.704257,97.2262327 C651.14398,91.6697566 655.509782,87.6346966 660.801664,85.1210527 C666.093546,82.6074087 671.914617,81.3505867 678.264875,81.3505867 Z M443.610906,89.9175387 C452.342511,89.9175387 459.949591,91.6043261 466.432147,94.9779008 C472.914702,98.3514756 478.239658,102.88265 482.407015,108.571423 C486.574372,114.260196 489.58413,120.742751 491.436289,128.019089 C493.217211,135.015567 493.897288,142.317836 493.476521,149.925895 L493.420745,150.84033 L419.400546,150.84033 C419.797437,159.968826 422.112635,166.583679 426.346141,170.684887 C430.579646,174.786096 436.665311,176.8367 444.603134,176.8367 C450.291907,176.8367 455.186898,175.414507 459.288106,172.57012 C463.252608,169.820547 465.733618,166.916443 466.731138,163.857808 L466.829038,163.540847 L491.634735,163.540847 C487.665823,175.844472 481.580159,184.642226 473.377742,189.934108 C465.175325,195.22599 455.253046,197.871931 443.610906,197.871931 C435.540786,197.871931 428.264448,196.582035 421.781893,194.002242 C415.299337,191.42245 409.80901,187.751207 405.31091,182.988513 C400.81281,178.225819 397.340013,172.537046 394.892517,165.922193 C392.445022,159.307341 391.221274,152.031003 391.221274,144.09318 C391.221274,136.419952 392.478096,129.275911 394.99174,122.661058 C397.505384,116.046206 401.077404,110.324359 405.707801,105.495516 C410.338198,100.666674 415.8616,96.8631338 422.278007,94.0848958 C428.694413,91.3066577 435.80538,89.9175387 443.610906,89.9175387 Z M367.436155,61.9367128 L367.436155,92.6957767 L388.074494,92.6957767 L388.074494,111.548106 L367.436155,111.548106 L367.436155,162.350173 C367.436155,167.112867 368.229937,170.287996 369.817502,171.875561 C371.405066,173.463125 374.580195,174.256908 379.342889,174.256908 C380.930454,174.256908 382.45187,174.190759 383.907137,174.058462 C385.11986,173.948214 386.286647,173.79203 387.407497,173.58991 L388.074494,173.463125 L388.074494,195.292138 C385.693148,195.68903 383.047207,195.953624 380.136671,196.085921 C377.226136,196.218218 374.38175,196.284366 371.603512,196.284366 C367.237709,196.284366 363.103426,195.986698 359.200663,195.391361 C355.2979,194.796024 351.858177,193.638425 348.881494,191.918564 C345.90481,190.198702 343.556537,187.751207 341.836676,184.576077 C340.180513,181.518546 339.321761,177.540923 339.260422,172.64321 L339.256883,172.074006 L339.256883,111.548106 L322.190564,111.548106 L322.190564,92.6957767 L339.256883,92.6957767 L339.256883,61.9367128 L367.436155,61.9367128 Z M202.584582,92.6957767 L202.584582,195.292138 L174.40531,195.292138 L174.40531,92.6957767 L202.584582,92.6957767 Z M278.163996,89.9175387 C285.704928,89.9175387 291.889815,90.9428408 296.718657,92.9934451 C301.547499,95.0440494 305.351039,97.8884359 308.129277,101.526605 C310.907516,105.164774 312.858897,109.596725 313.983422,114.822458 C315.048761,119.773153 315.609466,125.228482 315.665537,131.188446 L315.670209,132.186446 L315.670209,195.292138 L287.490938,195.292138 L287.490938,137.346031 C287.490938,128.87902 286.167967,122.561836 283.522026,118.394479 C280.876085,114.227121 276.17954,112.143443 269.432391,112.143443 C261.759162,112.143443 256.202686,114.425567 252.762962,118.989815 C249.393438,123.460916 247.674292,130.756704 247.605526,140.87718 L247.603377,141.513388 L247.603377,195.292138 L219.424106,195.292138 L219.424106,92.6957767 L246.214258,92.6957767 L246.214258,106.983858 L246.809595,106.983858 C250.381615,101.030491 255.012012,96.6977625 260.700785,93.985673 C266.389558,91.2735835 272.210629,89.9175387 278.163996,89.9175387 Z M765.404578,92.6957767 L765.404578,195.292138 L737.225307,195.292138 L737.225307,92.6957767 L765.404578,92.6957767 Z M806.851354,92.6957767 L824.909901,119.485929 L842.770003,92.6957767 L873.925958,92.6957767 L840.19021,140.719606 L878.093315,195.292138 L845.945132,195.292138 L824.51301,162.94551 L803.080888,195.292138 L771.528042,195.292138 L808.438919,141.314942 L774.703171,92.6957767 L806.851354,92.6957767 Z M119.26579,89.9175387 C124.689969,89.9175387 129.717257,90.5790239 134.347654,91.9019944 C138.97805,93.2249649 142.946962,95.3417177 146.254388,98.2522528 C149.561814,101.162788 152.141607,104.966328 153.993765,109.662873 C155.777326,114.185472 156.702135,119.597492 156.768192,125.898933 L156.772003,126.62997 L156.772003,195.292138 L128.592732,195.292138 L128.592732,137.147585 C128.592732,133.707862 128.460435,130.466584 128.195841,127.423752 C127.931247,124.38092 127.203613,121.734979 126.012939,119.485929 C124.822266,117.236879 123.06933,115.450869 120.754132,114.127899 C118.438933,112.804928 115.296878,112.143443 111.327967,112.143443 C107.359055,112.143443 104.150852,112.904151 101.703357,114.425567 C99.2558612,115.946983 97.337554,117.931439 95.948435,120.378934 C94.559316,122.82643 93.6332366,125.604668 93.1701969,128.713648 C92.7586061,131.477187 92.5299445,134.266858 92.4842122,137.082662 L92.4756374,138.139813 L92.4756374,195.292138 L64.2963659,195.292138 L64.2963659,137.742922 C64.2963659,134.70009 64.2302174,131.690332 64.0979204,128.713648 C63.9656233,125.736965 63.4033609,122.991801 62.411133,120.478157 C61.4189051,117.964513 59.765192,115.946983 57.4499936,114.425567 C55.1347953,112.904151 51.7281463,112.143443 47.2300466,112.143443 C45.9070761,112.143443 44.1541402,112.441111 41.9712389,113.036448 C39.7883376,113.631785 37.6715848,114.75631 35.6209805,116.410023 C33.5703762,118.063736 31.8174403,120.445083 30.3621728,123.554063 C28.965116,126.538685 28.2386464,130.407262 28.1827641,135.159796 L28.1792715,135.758466 L28.1792715,195.292138 L0,195.292138 L0,92.6957767 L26.5917069,92.6957767 L26.5917069,106.586967 L26.988598,106.586967 C30.6929154,101.295085 35.1579408,97.1938764 40.3836743,94.2833413 C45.6094077,91.3728062 51.5958492,89.9175387 58.3429987,89.9175387 C64.8255541,89.9175387 70.7458471,91.1743607 76.1038776,93.6880046 C81.4619081,96.2016485 85.5300423,100.6336 88.3082804,106.983858 C91.3511125,102.485758 95.4853953,98.5168469 100.711129,95.0771236 C105.936862,91.6374003 112.121749,89.9175387 119.26579,89.9175387 Z M553.272513,102.584263 C548.642116,102.584263 544.739353,103.510342 541.564224,105.362501 C538.389095,107.21466 535.842376,109.662155 533.924069,112.704987 C532.005762,115.74782 530.616643,119.220617 529.756712,123.12338 C528.896781,127.026143 528.466816,131.094277 528.466816,135.327783 C528.466816,139.296694 528.929856,143.265606 529.855935,147.234517 C530.782014,151.203429 532.270356,154.742375 534.32096,157.851355 C536.371565,160.960336 538.951357,163.47398 542.060338,165.392287 C545.169318,167.310594 548.90671,168.269748 553.272513,168.269748 C557.902909,168.269748 561.772598,167.343669 564.881579,165.49151 C567.990559,163.639351 570.471129,161.158782 572.323288,158.049801 C574.175447,154.94082 575.498417,151.401874 576.292199,147.432963 C577.085982,143.464051 577.482873,139.362843 577.482873,135.129337 C577.482873,130.895832 577.085982,126.827697 576.292199,122.924934 C575.498417,119.022172 574.142372,115.582448 572.224065,112.605765 C570.305758,109.629081 567.825188,107.21466 564.782356,105.362501 C561.739524,103.510342 557.902909,102.584263 553.272513,102.584263 Z M672.113062,102.584263 C667.482665,102.584263 663.612977,103.543417 660.503996,105.461724 C657.395015,107.380031 654.881371,109.860601 652.963064,112.903433 C651.044757,115.946265 649.688712,119.452137 648.89493,123.421048 C648.101148,127.38996 647.704257,131.491168 647.704257,135.724674 C647.704257,139.825883 648.134222,143.860943 648.994153,147.829854 C649.854084,151.798765 651.243203,155.271563 653.16151,158.248247 C655.079817,161.22493 657.626535,163.639351 660.801664,165.49151 C663.976794,167.343669 667.813408,168.269748 672.311508,168.269748 C676.941904,168.269748 680.811593,167.343669 683.920574,165.49151 C687.029554,163.639351 689.543198,161.22493 691.461506,158.248247 C693.379813,155.271563 694.735858,151.798765 695.52964,147.829854 C696.323422,143.860943 696.720313,139.825883 696.720313,135.724674 C696.720313,131.623465 696.290348,127.588405 695.430417,123.619494 C694.570486,119.650583 693.148293,116.111636 691.163837,113.002656 C689.179381,109.893675 686.632663,107.380031 683.523683,105.461724 C680.414702,103.543417 676.611162,102.584263 672.113062,102.584263 Z M442.817123,111.151215 C438.319024,111.151215 434.581632,111.911923 431.604948,113.433339 C428.628265,114.954755 426.246918,116.839988 424.460908,119.089038 C422.674898,121.338088 421.418076,123.719435 420.690442,126.233079 C420.01878,128.553365 419.600753,130.648199 419.43636,132.51758 L419.400546,132.980228 L465.241473,132.980228 C463.918503,125.836188 461.57023,120.412009 458.196655,116.707691 C454.823081,113.003374 449.69657,111.151215 442.817123,111.151215 Z" id="Combined-Shape" fill="#000000"></path>
                <circle id="Oval" fill="#000000" cx="750.199056" cy="68.2167399" r="14.1746838"></circle>
                <circle id="Oval" fill="#000000" cx="188.161673" cy="68.2167399" r="14.1746838"></circle>
            </g>
        </g>
    </g>
</svg>