<?xml version="1.0" encoding="UTF-8"?>
<svg width="1844px" height="514px" viewBox="0 0 1844 514" version="1.1" xmlns="http://www.w3.org/2000/svg" xmlns:xlink="http://www.w3.org/1999/xlink">
    <title>minted_pix_4</title>
    <defs>
        <filter color-interpolation-filters="auto" id="filter-1">
            <feColorMatrix in="SourceGraphic" type="matrix" values="0 0 0 0 0.000000 0 0 0 0 0.360784 0 0 0 0 1.000000 0 0 0 1.000000 0"></feColorMatrix>
        </filter>
    </defs>
    <g id="Page-1" stroke="none" stroke-width="1" fill="none" fill-rule="evenodd">
        <g id="minted_pix_4" filter="url(#filter-1)">
            <g>
                <path d="M1730.22324,1.36530455e-13 C1792.63208,1.36530455e-13 1843.22444,53.5440842 1843.22444,119.594059 L1843.22444,394.405941 C1843.22444,460.455916 1792.63208,514 1730.22324,514 L1296.77184,514 L1296.77184,513.866 L1354.43884,455.475 L1730.28754,455.475248 C1761.81925,455.475248 1787.44045,428.677687 1787.94972,395.415833 L1787.95745,394.405941 L1787.95745,119.594059 C1787.95745,86.203689 1762.65156,59.0722243 1731.24122,58.532934 L1730.28754,58.5247525 L1266.52539,58.5247525 C1237.47345,58.5247525 1213.43893,81.2731237 1209.43996,110.866474 L1209.439,170.532 L1209.339,170.532 L1209.33983,402.187819 L1209.33809,416.824692 L1195.06585,426.972701 L1175.45787,413.031184 L1175.13194,412.805715 C1169.82351,409.233172 1161.95582,408.692195 1155.87231,411.182784 L1155.84309,405.012692 L1155.84093,405.012892 L1155.84009,373.449692 L1155.75953,373.450373 L1155.75953,347.255557 L1154.96575,347.255557 C1148.35089,358.368509 1139.68544,366.372481 1128.96938,371.267472 C1118.25331,376.162462 1106.14813,378.609958 1092.65384,378.609958 C1077.30738,378.609958 1063.81308,375.633274 1052.17094,369.679907 C1040.5288,363.72654 1030.93726,355.65642 1023.39633,345.469547 C1015.8554,335.282674 1010.16663,323.574385 1006.33001,310.34468 C1002.4934,297.114976 1000.57509,283.356082 1000.57509,269.068001 C1000.57509,255.309108 1002.4934,242.013255 1006.33001,229.180441 C1010.16663,216.347627 1015.8554,205.036229 1023.39633,195.246248 C1030.93726,185.456266 1040.3965,177.584592 1051.77405,171.631224 C1063.15159,165.677857 1076.3813,162.701173 1091.46316,162.701173 C1103.63449,162.701173 1115.21048,165.280966 1126.19114,170.440551 C1136.9477,175.494838 1145.48259,182.897742 1151.79582,192.649264 L1152.18751,193.261792 L1152.98129,193.261792 L1152.98109,152.518692 L1153.151,152.518 L1153.19584,115.883109 L1153.24947,115.873987 C1155.10662,51.545271 1204.96415,1.36530455e-13 1266.19704,1.36530455e-13 L1730.22324,1.36530455e-13 Z M1297.47609,431.705692 L1297.47643,443.113863 L1297.01093,443.113535 L1247.47293,492.651096 L1247.53811,492.716843 L1246.61393,493.640535 L1246.07165,493.641228 C1241.42703,499.176327 1234.45791,502.695185 1226.66692,502.695185 C1218.87593,502.695185 1211.90681,499.176327 1207.26218,493.641228 L1207.23893,493.640535 L1206.31508,492.716843 L1206.42493,492.606096 L1155.84093,442.023087 L1156.01693,441.846535 L1155.96909,431.843692 L1183.11558,451.14531 L1183.54357,451.438889 C1184.41086,452.012724 1185.3449,452.50662 1186.3271,452.920578 L1186.82212,453.120895 L1191.18507,456.222402 C1193.70827,458.016479 1197.06464,458.070845 1199.63834,456.3855 L1199.87728,456.222402 L1226.50909,437.284692 L1226.97093,437.746096 L1227.14409,437.571692 L1246.23532,451.14531 L1246.66321,451.438817 C1247.53027,452.012515 1248.46406,452.506314 1249.44598,452.920215 L1249.94087,453.120507 L1254.30482,456.222402 C1256.82802,458.016479 1260.18439,458.070845 1262.75809,456.3855 L1262.99703,456.222402 L1297.47609,431.705692 Z M1356.52975,162.701173 C1372.66999,162.701173 1386.56118,165.744006 1398.20332,171.82967 C1409.84546,177.915334 1419.50315,185.985454 1427.17637,196.04003 C1434.8496,206.094606 1440.53838,217.802895 1444.24269,231.164896 C1447.94701,244.526898 1449.79917,258.484237 1449.79917,273.036913 C1449.79917,286.795806 1447.94701,300.025511 1444.24269,312.726027 C1440.53838,325.426544 1434.91575,336.671793 1427.37482,346.461775 C1419.83389,356.251757 1410.4408,364.057282 1399.19555,369.878353 C1387.9503,375.699423 1374.78674,378.609958 1359.70488,378.609958 C1347.00436,378.609958 1335.29607,376.030165 1324.58001,370.87058 C1314.09195,365.820774 1305.44144,358.426513 1298.62847,348.687797 L1298.18675,348.049339 L1297.47609,348.049093 L1297.47609,410.690692 L1293.62787,407.954092 C1291.10466,406.160015 1287.74829,406.105649 1285.17459,407.790994 L1284.93565,407.954092 L1258.18585,426.972701 L1241.03109,414.775692 L1241.0325,348.023535 L1241.03309,348.023093 L1241.03443,168.25765 L1294.61473,168.25765 L1294.61473,194.452465 L1295.40851,194.452465 C1302.28796,183.339513 1311.01956,175.269393 1321.60333,170.242105 C1332.18709,165.214817 1343.82923,162.701173 1356.52975,162.701173 Z M887.221811,179.835077 C904.685022,179.835077 919.899183,183.208652 932.864293,189.955802 C945.829404,196.702951 956.479317,205.765299 964.814031,217.142845 C973.148745,228.520392 979.168261,241.485502 982.872578,256.038178 C986.484287,270.227036 987.832229,285.044719 986.916403,300.491227 L986.84149,301.68066 L838.801091,301.68066 C839.594874,319.937653 844.22527,333.167357 852.692282,341.369775 C861.159293,349.572192 873.330621,353.6734 889.206267,353.6734 C900.583813,353.6734 910.373795,350.829014 918.576212,345.14024 C926.60411,339.572505 931.590553,333.687951 933.535541,327.48658 L933.658076,327.081693 L983.269469,327.081693 C975.331646,351.688944 963.160318,369.284452 946.755484,379.868216 C930.350649,390.45198 910.506092,395.743862 887.221811,395.743862 C871.081571,395.743862 856.528896,393.164069 843.563785,388.004484 C830.598674,382.844899 819.618019,375.502413 810.62182,365.977026 C801.625621,356.451638 794.680025,345.074092 789.785035,331.844387 C784.890044,318.614682 782.442548,304.062007 782.442548,288.186361 C782.442548,272.839903 784.956192,258.551822 789.98348,245.322117 C795.010768,232.092412 802.154809,220.648717 811.415602,210.991032 C820.676396,201.333348 831.723199,193.726268 844.556013,188.169792 C857.388827,182.613315 871.61076,179.835077 887.221811,179.835077 Z M734.872309,123.873426 L734.872309,185.391553 L776.148989,185.391553 L776.148989,223.096213 L734.872309,223.096213 L734.872309,324.700346 C734.872309,334.225734 736.459874,340.575992 739.635003,343.751121 C742.810132,346.926251 749.160391,348.513815 758.685778,348.513815 C761.860907,348.513815 764.90374,348.381518 767.814275,348.116924 C770.360993,347.885404 772.806421,347.552594 775.15056,347.118495 L776.148989,346.926251 L776.148989,390.584277 C771.386295,391.378059 766.094413,391.907247 760.273343,392.171841 C754.452273,392.436436 748.7635,392.568733 743.207024,392.568733 C734.475418,392.568733 726.206853,391.973396 718.401327,390.782722 C710.595801,389.592049 703.716354,387.276851 697.762987,383.837127 C691.80962,380.397404 687.113075,375.502413 683.673351,369.152155 C680.315526,362.953093 678.59664,354.862949 678.516691,344.881721 L678.513766,344.148013 L678.513766,223.096213 L644.381128,223.096213 L644.381128,185.391553 L678.513766,185.391553 L678.513766,123.873426 L734.872309,123.873426 Z M405.169163,185.391553 L405.169163,390.584277 L348.81062,390.584277 L348.81062,185.391553 L405.169163,185.391553 Z M556.327992,179.835077 C571.409855,179.835077 583.779629,181.885682 593.437314,185.98689 C603.094999,190.088099 610.702079,195.776872 616.258555,203.05321 C621.815031,210.329547 625.717794,219.19345 627.966844,229.644916 C630.140925,239.748001 631.264201,250.901892 631.33667,263.106589 L631.340419,264.372892 L631.340419,390.584277 L574.981876,390.584277 L574.981876,274.692062 C574.981876,257.758039 572.335935,245.123671 567.044053,236.788957 C561.752171,228.454243 552.35908,224.286886 538.864781,224.286886 C523.518323,224.286886 512.405371,228.851134 505.525925,237.979631 C498.736997,246.988015 495.297869,261.729711 495.208541,282.204718 L495.206755,283.026776 L495.206755,390.584277 L438.848212,390.584277 L438.848212,185.391553 L492.428517,185.391553 L492.428517,213.967716 L493.61919,213.967716 C500.763231,202.060982 510.024024,193.395525 521.401571,187.971346 C532.779117,182.547167 544.421257,179.835077 556.327992,179.835077 Z M1530.80916,185.391553 L1530.80916,390.584277 L1474.45061,390.584277 L1474.45061,185.391553 L1530.80916,185.391553 Z M1613.70271,185.391553 L1649.8198,238.971858 L1685.54001,185.391553 L1747.85192,185.391553 L1680.38042,281.439211 L1756.18663,390.584277 L1691.89026,390.584277 L1649.02602,325.89102 L1606.16178,390.584277 L1543.05608,390.584277 L1616.87784,282.629885 L1549.40634,185.391553 L1613.70271,185.391553 Z M238.53158,179.835077 C249.379938,179.835077 259.434514,181.158048 268.695307,183.803989 C277.9561,186.44993 285.893923,190.683435 292.508776,196.504506 C299.123628,202.325576 304.283213,209.932656 307.987531,219.325747 C311.605701,228.500393 313.456858,239.505161 313.541002,252.34005 L313.544007,253.25994 L313.544007,390.584277 L257.185464,390.584277 L257.185464,274.295171 C257.185464,267.415724 256.92087,260.933169 256.391681,254.847504 C255.862493,248.76184 254.407226,243.469958 252.025879,238.971858 C249.644532,234.473759 246.13866,230.901738 241.508263,228.255797 C236.877867,225.609856 230.593757,224.286886 222.655934,224.286886 C214.718111,224.286886 208.301704,225.808302 203.406713,228.851134 C198.511722,231.893966 194.675108,235.862878 191.89687,240.757869 C189.118632,245.652859 187.266473,251.209335 186.340394,257.427297 C185.480463,263.201118 185.019786,269.031975 184.958362,274.919869 L184.951275,276.279626 L184.951275,390.584277 L128.592732,390.584277 L128.592732,275.485844 C128.592732,269.40018 128.460435,263.380664 128.195841,257.427297 C127.931247,251.47393 126.806722,245.983602 124.822266,240.956314 C122.83781,235.929026 119.530384,231.893966 114.899987,228.851134 C110.269591,225.808302 103.456293,224.286886 94.4600932,224.286886 C91.8141522,224.286886 88.3082804,224.882223 83.9424778,226.072896 C79.5766751,227.26357 75.3431695,229.512619 71.241961,232.820046 C67.1407525,236.127472 63.6348807,240.890166 60.7243456,247.108127 C57.8884396,253.166653 56.4341289,261.046373 56.3614133,270.747287 L56.358543,271.516933 L56.358543,390.584277 L0,390.584277 L0,185.391553 L53.1834138,185.391553 L53.1834138,213.173934 L53.9771961,213.173934 C61.3858309,202.59017 70.3158817,194.387753 80.7673486,188.566683 C91.2188155,182.745612 103.191698,179.835077 116.685997,179.835077 C129.651108,179.835077 141.491694,182.348721 152.207755,187.376009 C162.923816,192.403297 171.060085,201.267199 176.616561,213.967716 C182.702225,204.971517 190.970791,197.033694 201.422257,190.154247 C211.873724,183.274801 224.243498,179.835077 238.53158,179.835077 Z M1106.54503,205.168526 C1097.28423,205.168526 1089.47871,207.020685 1083.12845,210.725002 C1076.77819,214.42932 1071.68475,219.324311 1067.84814,225.409975 C1064.01152,231.495639 1061.23329,238.441234 1059.51342,246.24676 C1057.79356,254.052286 1056.93363,262.188555 1056.93363,270.655566 C1056.93363,278.593389 1057.85971,286.531212 1059.71187,294.469035 C1061.56403,302.406858 1064.54071,309.48475 1068.64192,315.702711 C1072.74313,321.920672 1077.90271,326.94796 1084.12068,330.784575 C1090.33864,334.621189 1097.81342,336.539496 1106.54503,336.539496 C1115.80582,336.539496 1123.5452,334.687338 1129.76316,330.98302 C1135.98112,327.278703 1140.94226,322.317563 1144.64658,316.099602 C1148.35089,309.881641 1150.99683,302.803749 1152.5844,294.865926 C1154.17196,286.928103 1154.96575,278.725686 1154.96575,270.258675 C1154.96575,261.791663 1154.17196,253.655395 1152.5844,245.849869 C1150.99683,238.044343 1148.28474,231.164896 1144.44813,225.211529 C1140.61152,219.258162 1135.65038,214.42932 1129.56471,210.725002 C1123.47905,207.020685 1115.80582,205.168526 1106.54503,205.168526 Z M1344.22612,205.168526 C1334.96533,205.168526 1327.22595,207.086834 1321.00799,210.923448 C1314.79003,214.760062 1309.76274,219.721202 1305.92613,225.806866 C1302.08951,231.89253 1299.37742,238.904274 1297.78986,246.842097 C1296.2023,254.77992 1295.40851,262.982337 1295.40851,271.449348 C1295.40851,279.651765 1296.26844,287.721885 1297.98831,295.659708 C1299.70817,303.597531 1302.48641,310.543126 1306.32302,316.496493 C1310.15963,322.44986 1315.25307,327.278703 1321.60333,330.98302 C1327.95359,334.687338 1335.62682,336.539496 1344.62302,336.539496 C1353.88381,336.539496 1361.62319,334.687338 1367.84115,330.98302 C1374.05911,327.278703 1379.0864,322.44986 1382.92301,316.496493 C1386.75963,310.543126 1389.47172,303.597531 1391.05928,295.659708 C1392.64684,287.721885 1393.44063,279.651765 1393.44063,271.449348 C1393.44063,263.246931 1392.5807,255.176811 1390.86083,247.238988 C1389.14097,239.301165 1386.29659,232.223273 1382.32767,226.005312 C1378.35876,219.78735 1373.26533,214.760062 1367.04737,210.923448 C1360.8294,207.086834 1353.22232,205.168526 1344.22612,205.168526 Z M885.634247,222.30243 C876.638047,222.30243 869.163264,223.823846 863.209897,226.866678 C857.25653,229.909511 852.493836,233.679976 848.921816,238.178076 C845.349795,242.676176 842.836151,247.43887 841.380884,252.466157 C840.002209,257.228851 839.157854,261.516595 838.847817,265.329389 L838.801091,265.960456 L930.482947,265.960456 C927.837006,251.672375 923.14046,240.824017 916.393311,233.415382 C909.646161,226.006748 899.39314,222.30243 885.634247,222.30243 Z" id="Combined-Shape" fill="#000000"></path>
                <circle id="Oval" fill="#000000" cx="1500.39811" cy="136.43348" r="28.3493677"></circle>
                <circle id="Oval" fill="#000000" cx="376.323346" cy="136.43348" r="28.3493677"></circle>
            </g>
        </g>
    </g>
</svg>